<svg xmlns="http://www.w3.org/2000/svg" viewBox="0 0 64 64" role="img">
  <title>GeoCrop sprout favicon</title>
  <defs>
    <linearGradient id="geocrop-favicon-bg" x1="10" y1="8" x2="54" y2="58" gradientUnits="userSpaceOnUse">
      <stop offset="0" stop-color="#10b981" />
      <stop offset="1" stop-color="#047857" />
    </linearGradient>
  </defs>
  <rect width="64" height="64" rx="16" fill="url(#geocrop-favicon-bg)" />
  <path
    d="M14 9.536V7a4 4 0 0 1 4-4h1.5a.5.5 0 0 1 .5.5V5a4 4 0 0 1-4 4 4 4 0 0 0-4 4c0 2 1 3 1 5a5 5 0 0 1-1 3"
    fill="none"
    stroke="#ffffff"
    stroke-linecap="round"
    stroke-linejoin="round"
    stroke-width="2.4"
    transform="translate(7 8) scale(2)"
  />
  <path
    d="M4 9a5 5 0 0 1 8 4 5 5 0 0 1-8-4"
    fill="none"
    stroke="#ffffff"
    stroke-linecap="round"
    stroke-linejoin="round"
    stroke-width="2.4"
    transform="translate(7 8) scale(2)"
  />
  <path
    d="M5 21h14"
    fill="none"
    stroke="#ffffff"
    stroke-linecap="round"
    stroke-linejoin="round"
    stroke-width="2.4"
    transform="translate(7 8) scale(2)"
  />
</svg>
